<?xml version="1.0" standalone="no"?><!-- Generator: Gravit.io --><svg xmlns="http://www.w3.org/2000/svg" xmlns:xlink="http://www.w3.org/1999/xlink" style="isolation:isolate" viewBox="0 0 50 50" width="500" height="500"><path d=" M 18.63 11.438 Q 20.813 10.588 21.844 9.994 Q 21.448 12.914 18.63 11.438 L 18.63 11.438 Z  M 10.934 20.428 Q 6.117 17.158 8.93 12.096 Q 9 14.17 10.512 15.189 Q 9.563 13.01 11.074 10.935 Q 11.039 14.346 14.379 11.779 L 13.289 11.146 Q 17.051 5.908 24.328 5.486 Q 20.777 6.892 20.391 8.158 Q 24.293 5.592 29.391 5.873 Q 26.156 6.611 24.504 8.404 Q 32.133 5.346 38.848 9.846 Q 36.738 9.424 37.477 11.217 C 38.215 13.01 42.891 12.764 44.789 17.932 Q 42.117 16.279 42.961 18.951 C 43.805 21.623 46.16 22.432 45.422 27.107 Q 44.402 24.471 43.102 25.842 C 41.801 27.213 45.563 31.713 41.238 37.021 Q 41.309 34.701 39.691 35.369 C 38.074 36.037 39.41 39.658 34.453 42.576 Q 35.367 41.099 33.996 41.029 C 32.625 40.959 31.711 43.842 25.277 44.334 Q 26.543 43.525 26.648 42.963 C 26.754 42.4 15.609 46.514 13.078 36.353 Q 13.395 32.873 17.016 30.904 C 20.637 28.935 28.055 27.599 27.211 21.939 Q 26.824 24.224 26.227 25.033 Q 24.574 24.928 23.73 25.279 C 22.887 25.631 27.492 22.537 24.082 18.353 Q 30.797 19.443 30.445 25.877 Q 28.371 24.822 28.055 24.928 Q 27.457 27.705 23.766 30.271 C 20.074 32.838 18.984 35.264 23.098 37.127 Q 22.605 36.002 22.887 35.439 Q 23.344 36.986 27.141 36.705 Q 28.617 38.498 31.008 39.096 Q 27.668 37.267 27.246 35.369 Q 30.094 35.685 32.66 32.873 Q 35.191 33.717 37.898 32.803 Q 34.137 33.154 32.484 31.783 Q 34.84 29.709 35.578 26.334 Q 38.531 25.349 40.324 22.783 Q 37.125 25.56 34.523 25.631 Q 35.438 22.396 33.891 19.514 Q 37.09 16.455 37.195 15.049 Q 33.504 19.092 32.484 19.127 Q 31.711 16.807 29.707 15.892 Q 30.27 13.889 32.871 12.974 Q 27.527 11.709 29.813 8.826 Q 25.418 9.775 24.223 11.463 Q 27.703 9.846 28.371 9.986 Q 27.809 11.955 30.832 13.326 Q 27.492 14.838 29.461 18.318 Q 24.82 16.209 22.113 18.353 C 19.406 20.498 20.883 24.857 22.816 24.752 Q 16.91 26.791 14.801 20.287 Q 16.805 21.799 17.93 21.764 Q 16.137 19.408 16.594 17.967 Q 17.824 20.006 19.195 19.9 Q 18.422 17.861 19.09 17.017 Q 19.512 18.389 19.934 18.494 Q 21.34 16.103 24.328 15.224 Q 22.43 14.135 20.25 15.717 C 18.07 17.299 17.297 16.982 16.559 16.807 Q 17.93 16.877 19.688 14.838 Q 20.848 13.467 21.727 13.432 Q 19.406 12.623 18.211 13.572 Q 17.508 14.416 17.719 15.928 Q 16.699 15.014 16.488 13.889 Q 15.117 15.154 15.855 17.58 Q 14.203 16.736 13.852 15.4 Q 13.289 17.228 14.238 19.478 Q 12.797 19.021 11.777 17.053 Q 10.441 18.635 10.934 20.428 L 10.934 20.428 Z  M 14 20.469 Q 12.688 21.5 11.281 23.656 Q 8.438 25.594 7.656 23.344 Q 8.344 21.656 10.156 22.844 Q 9.313 20.75 6.688 21.031 Q 4.25 21.906 4.5 23.75 Q 5.281 27.031 8.969 26.063 Q 7 28.25 4.594 27.938 Q 5.844 29.25 8.656 28.406 Q 5.563 32.25 9.438 35.313 Q 8.063 32.5 9.719 32.094 Q 11.094 32.531 10.438 35.344 Q 10.094 37.625 11.625 38.906 Q 10.875 37.344 12 35.5 Q 13.375 33.406 11.938 30.813 Q 10.469 27.625 12.563 25.875 Q 11.719 27.719 12.938 29.531 Q 13.906 31.594 13.656 32.469 Q 15.063 30.313 14.875 28.594 Q 14.813 27.188 14.406 26.25 Q 15.875 27.875 19.188 27.219 L 19.188 27.219 Q 13.313 25.844 14 20.469 Z " fill-rule="evenodd" fill="rgb(82,1,1)"/></svg>