<?xml version="1.0" standalone="no"?><!-- Generator: Gravit.io --><svg xmlns="http://www.w3.org/2000/svg" xmlns:xlink="http://www.w3.org/1999/xlink" style="isolation:isolate" viewBox="0 0 50 50" width="500" height="500"><path d=" M 35.111 18.289 L 30.111 21.121 L 25.111 23.953 L 20.118 21.109 L 15.125 18.265 L 15.132 12.59 L 15.139 6.914 L 20.139 4.082 L 25.139 1.25 L 30.132 4.094 L 35.125 6.937 L 35.118 12.613 L 35.111 18.289 Z  M 24.111 37.586 L 19.111 40.418 L 14.111 43.25 L 9.118 40.406 L 4.125 37.563 L 4.132 31.887 L 4.139 26.211 L 9.139 23.379 L 14.139 20.547 L 19.132 23.391 L 24.125 26.235 L 24.118 31.91 L 24.111 37.586 Z  M 46.111 37.586 L 41.111 40.418 L 36.111 43.25 L 31.118 40.406 L 26.125 37.563 L 26.132 31.887 L 26.139 26.211 L 31.139 23.379 L 36.139 20.547 L 41.132 23.391 L 46.125 26.235 L 46.118 31.91 L 46.111 37.586 Z " fill-rule="evenodd" fill="rgb(255,255,255)"/></svg>